<?xml version="1.0" encoding="utf-8"?>
<!-- Generator: Adobe Illustrator 21.0.0, SVG Export Plug-In . SVG Version: 6.00 Build 0)  -->
<svg version="1.1" id="Layer_1" xmlns="http://www.w3.org/2000/svg" xmlns:xlink="http://www.w3.org/1999/xlink" x="0px" y="0px"
	 viewBox="0 0 512 512" style="enable-background:new 0 0 512 512;" xml:space="preserve">
<style type="text/css">
	.st0{fill:#71CCE0;}
	.st1{fill:#DFDFDF;}
	.st2{fill:#4A555F;}
	.st3{fill:#FFD452;}
	.st4{fill:#F58E6F;}
	.st5{fill:#FFFFFF;}
	.st6{fill:none;}
</style>
<g>
	<g>
		<g>
			<g>
				<path class="st2" d="M431.312,101.042H31.534c-17.156,0-31.113,13.968-31.113,31.136v264.365
					c0,17.169,13.957,31.137,31.113,31.137h251.76V231.376h179.154v-99.198C462.448,115.01,448.48,101.042,431.312,101.042z
					 M455.767,224.695H276.612v196.303H31.534c-13.472,0-24.431-10.97-24.431-24.455V132.178c0-13.484,10.959-24.454,24.431-24.454
					h399.777c13.484,0,24.455,10.97,24.455,24.454V224.695z"/>
			</g>
		</g>
	</g>
	<g>
		<g>
			<g>
				<path class="st2" d="M321.197,15.804c-9.642-9.76-22.517-15.176-36.256-15.248L177.797,0c-28.19,0-51.24,22.942-51.382,51.145
					l-0.171,39.391h35.634l0.172-39.229c0.035-8.623,7.162-15.653,15.862-15.672l106.839,0.557c4.2,0.019,8.147,1.684,11.121,4.694
					c2.954,2.973,4.57,6.94,4.552,11.172l-0.172,38.478h35.661l0.146-38.312C336.13,38.489,330.852,25.555,321.197,15.804z
					 M329.257,83.854h-22.293l0.142-31.768c0.026-6.019-2.279-11.669-6.486-15.903c-4.226-4.276-9.851-6.646-15.836-6.673
					l-106.861-0.557c-12.386,0.027-22.504,10.042-22.554,22.325l-0.142,32.575h-22.271l0.141-32.679
					c0.124-24.534,20.175-44.493,44.683-44.493l107.126,0.557c11.952,0.063,23.153,4.773,31.537,13.262l0.004,0.003
					c8.4,8.482,12.993,19.735,12.93,31.689L329.257,83.854z"/>
			</g>
		</g>
	</g>
	<g>
		<g>
			<path class="st1" d="M310.896,25.978c-6.919-7.006-16.165-10.892-26.032-10.945l-107.067-0.557
				c-20.247,0-36.803,16.481-36.905,36.731l-0.108,24.851h6.682l0.108-24.813c0.07-16.554,13.676-30.052,30.415-30.087
				l106.828,0.557c8.075,0.036,15.655,3.229,21.325,8.968c5.683,5.72,8.793,13.333,8.759,21.44l-0.106,23.937h6.697l0.091-23.912
				C321.634,42.28,317.843,32.991,310.896,25.978z"/>
		</g>
	</g>
	<g>
		<g>
			<g>
				<path class="st2" d="M282.783,83.842v23.887h71.565V83.842H282.783z M347.667,101.047h-58.203V90.523h58.203V101.047z"/>
			</g>
		</g>
	</g>
	<g>
		<g>
			<g>
				<path class="st2" d="M108.506,83.842v23.887h71.565V83.842H108.506z M173.39,101.047h-58.202V90.523h58.202V101.047z"/>
			</g>
		</g>
	</g>
	<g>
		<g>
			<g>
				<path class="st2" d="M276.612,224.695V512h234.966V224.695H276.612z M504.897,505.318H283.294V231.376h221.603V505.318z"/>
			</g>
		</g>
	</g>
	<g>
		<g>
			<rect x="317.178" y="274.283" class="st3" width="87.168" height="26.4"/>
		</g>
	</g>
	<g>
		<g>
			<g>
				<path class="st2" d="M313.837,270.943v33.081h93.85v-33.081H313.837z M401.005,297.342h-80.487v-19.718h80.487V297.342z"/>
			</g>
		</g>
	</g>
	<g>
		<g>
			<rect x="433.036" y="297.563" class="st2" width="43.715" height="6.682"/>
		</g>
	</g>
	<g>
		<g>
			<rect x="317.178" y="321.883" class="st2" width="159.573" height="6.681"/>
		</g>
	</g>
	<g>
		<g>
			<rect x="317.178" y="346.201" class="st2" width="159.573" height="6.681"/>
		</g>
	</g>
	<g>
		<g>
			<rect x="317.178" y="370.52" class="st2" width="159.573" height="6.682"/>
		</g>
	</g>
	<g>
		<g>
			<rect x="317.178" y="394.839" class="st2" width="159.573" height="6.682"/>
		</g>
	</g>
	<g>
		<g>
			<rect x="433.036" y="273.245" class="st2" width="43.715" height="6.682"/>
		</g>
	</g>
	<g>
		<g>
			<rect x="317.178" y="419.157" class="st2" width="111.001" height="6.681"/>
		</g>
	</g>
	<g>
		<g>
			<rect x="410.203" y="460.099" class="st2" width="66.548" height="6.682"/>
		</g>
	</g>
	<g>
		<g>
			<path class="st4" d="M431.312,115.519H31.534c-9.176,0-16.637,7.483-16.637,16.659v90.601h57.862l98.33,39.51h34.143v-25.123
				h46.28v25.123h17.305V216.9h179.154v-84.721C447.971,123.003,440.487,115.519,431.312,115.519z"/>
		</g>
	</g>
	<g>
		<g>
			<g>
				<path class="st2" d="M201.887,233.822v42.954h52.976v-42.954H201.887z M248.181,270.094h-39.613v-29.59h39.613V270.094z"/>
			</g>
		</g>
	</g>
	<g>
		<g>
			<g>
				<path class="st2" d="M169.575,270.084l-97.73-39.262l-0.6-0.24H0.421v165.582c0,17.378,14.137,31.517,31.515,31.517h251.357
					V270.084H169.575z M276.612,420.998H31.937c-13.693,0-24.833-11.141-24.833-24.835v-158.9h62.85l97.73,39.262l0.6,0.24h108.329
					V420.998z"/>
			</g>
		</g>
	</g>
	<g>
		<g>
			<path class="st4" d="M239.886,284.562v2.917h-23.007v-2.917h-50.111l-98.33-39.51H14.897v151.114
				c0,9.398,7.639,17.038,17.038,17.038h236.881V284.562H239.886z"/>
		</g>
	</g>
	<g>
		<g>
			<g>
				<path class="st2" d="M213.534,270.943v19.881h29.682v-19.881H213.534z M236.534,284.143h-16.319v-6.519h16.319V284.143z"/>
			</g>
		</g>
	</g>
</g>
</svg>
